<svg width="128" height="30" viewBox="0 0 128 30" class="Logo Menu__header" fill="none" xmlns="http://www.w3.org/2000/svg"><path d="M19.3344 17.7685L30.0669 16L19.3344 14.2315L25.6734 5.3935L16.8354 11.7325L15.0669 1L13.2999 11.7325L4.46039 5.3935L10.7994 14.2315L0.0668945 16L10.7994 17.7685L4.46039 26.6065L13.2999 20.2675L15.0669 31L16.8354 20.2675L25.6734 26.6065L19.3344 17.7685Z" fill="#181C1F"></path><path d="M74.3094 10.774C73.3179 10.2775 72.1824 10.03 70.9059 10.03H65.6739V15.337H67.8969V11.911H70.8039C71.6814 11.911 72.4539 12.079 73.1214 12.415C73.7889 12.751 74.3019 13.2295 74.6604 13.852C75.0189 14.473 75.1989 15.1945 75.1989 16.015C75.1989 16.8355 75.0189 17.557 74.6604 18.178C74.3019 18.799 73.7889 19.2775 73.1214 19.615C72.4539 19.951 71.6814 20.119 70.8039 20.119H67.8969V16.6825H65.6739V22H70.9059C72.1824 22 73.3164 21.7525 74.3094 21.256C75.3009 20.7595 76.0704 20.059 76.6179 19.153C77.1654 18.247 77.4384 17.2015 77.4384 16.015C77.4384 14.83 77.1654 13.783 76.6179 12.877C76.0704 11.971 75.3009 11.269 74.3094 10.774ZM54.6729 10.03L49.2864 22H51.5784L52.7589 19.2295H58.7439L59.9409 22H62.2659L56.8629 10.03H54.6729ZM53.5104 17.485L55.7499 12.253L58.0074 17.485H53.5104ZM45.4299 16.6135C45.8679 15.964 46.0884 15.1885 46.0884 14.2885C46.0884 13.411 45.8829 12.6535 45.4734 12.0145C45.0624 11.3755 44.4729 10.8865 43.7034 10.5445C42.9339 10.2025 42.0309 10.0315 40.9929 10.0315H36.0684V15.3385H38.2914V11.9125H40.8909C41.8599 11.9125 42.5949 12.118 43.0974 12.5275C43.5984 12.9385 43.8504 13.525 43.8504 14.2885C43.8504 15.052 43.5999 15.643 43.0974 16.0585C42.5949 16.4755 41.8599 16.6825 40.8909 16.6825H36.0684V22H38.2914V18.511H40.9929C41.1984 18.511 41.3514 18.505 41.4549 18.4945L43.8999 22H46.2939L43.5414 18.067C44.3604 17.7475 44.9904 17.263 45.4299 16.6135ZM81.6384 22H83.8614V10.03H81.6384V22ZM92.6619 10.03L87.2754 22H89.5674L90.7479 19.2295H96.7329L97.9299 22H100.255L94.8519 10.03H92.6619ZM91.4994 17.485L93.7389 12.253L95.9964 17.485H91.4994ZM117.775 10.03V11.911H121.742V22H123.965V11.911H127.933V10.03H117.775ZM112.093 18.136L105.493 10.03H103.663V22H105.869V13.894L112.469 22H114.299V10.03H112.093V18.136Z" fill="#181C1F"></path></svg>